<svg xmlns="http://www.w3.org/2000/svg" viewBox="0 0 179.23 75.54"><title>Ресурс 1</title><g id="a5f0f280-d910-4160-bfa3-2590112b9609" data-name="Слой 2"><g id="b532f731-32e5-489b-af0c-661ef62b9514" data-name="Слой 1"><path d="M64.54,21.58A3.39,3.39,0,0,1,65.91,24a4.18,4.18,0,0,1-1,3.58,5.93,5.93,0,0,1-4.1,1.3q-6.49.18-10.13.38T41.21,30q-1.26,13.46-2.08,27-.27,5-.45,11.45T38.62,78.9a4,4,0,0,1-1.38,3.37,6.49,6.49,0,0,1-3.68,1.51A5.39,5.39,0,0,1,29.79,83a3.88,3.88,0,0,1-1.61-2.87,49,49,0,0,1-.06-5.75c.08-2.69.2-5.51.37-8.48s.36-5.54.42-7.71c.14-3.69.36-7.35.65-11s.6-7.11.93-10.38l.24-2.53c.09-.95.2-2,.32-3.18a59.94,59.94,0,0,0-10.91,2.31,11.91,11.91,0,0,0-5.42,3.21,5.9,5.9,0,0,0-1.22,4.51,8.5,8.5,0,0,0,1.92,4.51,2.08,2.08,0,0,1,.4,1,3.25,3.25,0,0,1-1.34,2.71A5.67,5.67,0,0,1,11.27,51a2.93,2.93,0,0,1-2.08-.51,9,9,0,0,1-2.73-3.22A13.35,13.35,0,0,1,5,42.2,12.78,12.78,0,0,1,7.93,32q3.6-4.09,11.53-6.68a104.67,104.67,0,0,1,20.7-3.92q7.88-.84,12.59-1a70.29,70.29,0,0,1,8.3.06A6.5,6.5,0,0,1,64.54,21.58Z" transform="translate(-4.89 -8.29)" fill="#f5c565"/><path d="M55.06,78.25a13,13,0,0,1-3.54-8.17A23.41,23.41,0,0,1,53,59a22.63,22.63,0,0,1,6.18-9,15.92,15.92,0,0,1,9-4.1,2.77,2.77,0,0,1,2.18.38,5.24,5.24,0,0,1,1.13,2.09,16.9,16.9,0,0,1,3.12-.62c2.34-.25,3.59.47,3.77,2.14a53,53,0,0,1-.32,7.27,70.56,70.56,0,0,0-.44,11.63,2.64,2.64,0,0,0,.72,1.66,1.76,1.76,0,0,0,1.47.5A5.56,5.56,0,0,0,83,68.83a63.23,63.23,0,0,0,4.62-6.25,2.49,2.49,0,0,1,1.83-1.2,1.67,1.67,0,0,1,1.56.7,4.41,4.41,0,0,1,.78,2.31A6.55,6.55,0,0,1,90.86,69a36.16,36.16,0,0,1-5.58,6.81A10.58,10.58,0,0,1,79.17,79a6.68,6.68,0,0,1-4.5-1.15,9.84,9.84,0,0,1-3.43-4.09q-3.09,6.41-8.75,7A8.75,8.75,0,0,1,55.06,78.25ZM67.12,71a12.13,12.13,0,0,0,1.55-5.16l1.26-13.45a8.69,8.69,0,0,0-5.31,2.84,15.27,15.27,0,0,0-3.44,6.19,19.56,19.56,0,0,0-.7,7.75,5.15,5.15,0,0,0,1.24,3.2,3.08,3.08,0,0,0,2.59.81A4,4,0,0,0,67.12,71Z" transform="translate(-4.89 -8.29)" fill="#f5c565"/><path d="M124.6,52.52a5,5,0,0,1,.75,2.31,6,6,0,0,1-.21,2.81,2.65,2.65,0,0,1-1.43,1.49,32.78,32.78,0,0,1-9.27,2.72A18.69,18.69,0,0,1,110,72a12.75,12.75,0,0,1-8.38,4.58q-7.25.76-11.11-4.4t-5-15.62a98.5,98.5,0,0,1,.17-20.33,63,63,0,0,1,4.75-19.18Q94.07,9,100.17,8.33a6.23,6.23,0,0,1,5.6,2.27,12.52,12.52,0,0,1,2.78,7.13,32.69,32.69,0,0,1-1,11.9,46,46,0,0,1-6.09,13,10.84,10.84,0,0,1,8.22,3.15,16.4,16.4,0,0,1,4.52,8.54A43.39,43.39,0,0,0,122.08,52a3.12,3.12,0,0,1,1-.25A1.59,1.59,0,0,1,124.6,52.52Zm-28-32.34a68,68,0,0,0-1.9,11.89,147.23,147.23,0,0,0-.46,16.2q3.81-9.17,5.94-16.09a30.75,30.75,0,0,0,1.59-12.07,9.35,9.35,0,0,0-.91-3.46c-.45-.77-1-1.12-1.6-1.06Q97.85,15.74,96.61,20.18Zm8.27,46.51a10.2,10.2,0,0,0,1.73-5.61,10,10,0,0,1-3.82-3.58,11.65,11.65,0,0,1-1.72-5,16.33,16.33,0,0,1,0-2.75l-.21,0a5.84,5.84,0,0,0-4.6,3.42,13.71,13.71,0,0,0-1.15,8,10.65,10.65,0,0,0,2.2,6.06A4.42,4.42,0,0,0,101.14,69,5.24,5.24,0,0,0,104.88,66.69Z" transform="translate(-4.89 -8.29)" fill="#f5c565"/><path d="M156.89,49.11a5,5,0,0,1,.75,2.31c.25,2.29-.3,3.73-1.64,4.3a32.78,32.78,0,0,1-9.27,2.72,18.11,18.11,0,0,1-4.35,10.2,13.32,13.32,0,0,1-8.72,4.57,12.81,12.81,0,0,1-7.56-1.3,13.36,13.36,0,0,1-5.2-5,17.86,17.86,0,0,1-2.36-7.28,22.11,22.11,0,0,1,1-9.92,16.47,16.47,0,0,1,5-7.26,14.47,14.47,0,0,1,7.84-3.25A11.21,11.21,0,0,1,141.63,42a16.19,16.19,0,0,1,4.88,8.86,43.85,43.85,0,0,0,7.87-2.28,4.55,4.55,0,0,1,1-.25A1.59,1.59,0,0,1,156.89,49.11ZM137.21,63.28a10.45,10.45,0,0,0,1.69-5.61,9.88,9.88,0,0,1-3.82-3.58,11.79,11.79,0,0,1-1.72-5,12.71,12.71,0,0,1,0-2.31l-.36,0A5.64,5.64,0,0,0,128.5,50c-1.07,2-1.43,4.63-1.08,8a10.11,10.11,0,0,0,2.18,5.86,4.46,4.46,0,0,0,3.83,1.69A5.21,5.21,0,0,0,137.21,63.28Z" transform="translate(-4.89 -8.29)" fill="#f5c565"/><path d="M182.7,45a3.73,3.73,0,0,1,1.4,2.64,5.2,5.2,0,0,1-.22,2.05,12,12,0,0,1-2.75,4.77,6.92,6.92,0,0,1-4.39,2.28,4.61,4.61,0,0,1-3.55-1.07,5.31,5.31,0,0,1-1.81-3.72c-.1-.91-.15-1.89-.17-3a14.16,14.16,0,0,0,0-1.59,1.28,1.28,0,0,0-.34-.84.78.78,0,0,0-.64-.22c-.67.07-1.49,1-2.47,2.69a35.21,35.21,0,0,0-2.76,6.7,51.5,51.5,0,0,0-1.92,8.6,11.36,11.36,0,0,1-1.31,4.77,4.2,4.2,0,0,1-3.17,1.49,3.94,3.94,0,0,1-4.13-2.46c-.94-1.83-1.64-4.85-2.08-9.05a58.66,58.66,0,0,1,.78-18,5.47,5.47,0,0,1,1.79-3.27,7.51,7.51,0,0,1,4-1.4,4,4,0,0,1,2,.15,1.48,1.48,0,0,1,.72,1.3,27.89,27.89,0,0,1-.53,5.27c-.28,2-.48,3.67-.62,5.13a53.16,53.16,0,0,0-.16,5.37,41.34,41.34,0,0,1,4.24-10.58A21.48,21.48,0,0,1,169.8,37a10.29,10.29,0,0,1,4.91-2.18,4.16,4.16,0,0,1,3.31.84A4.94,4.94,0,0,1,179.5,39a31.71,31.71,0,0,1-.24,5.24l.64-.07A3.65,3.65,0,0,1,182.7,45Z" transform="translate(-4.89 -8.29)" fill="#f5c565"/></g></g></svg>